# xmcd
#
# Track frame offsets: 
#        150
#        13424
#        26345
#        39602
#        50777
#        63088
#        77054
#        97544
#        126201
#        146205
#        169245
#        177599
#        201635
#        210749
#        222811
#
# Disc length: 3149 seconds
#
# Revision: 2
# Processed by: cddbd v1.5.2PL0 Copyright (c) Steve Scherf et al.
# Submitted via: ExactAudioCopy v1.1
#
DISCID=df0c4b0f
DTITLE=Waylon Jennings - Live in Concert March 19 1995
DYEAR=2015
DGENRE=Country
TTITLE0=Rainy Day Woman
TTITLE1=Mamas Don't Let Your Babies Grow Up To Be Cowboys
TTITLE2=Good Hearted Woman
TTITLE3=Wrong
TTITLE4=Amanda
TTITLE5=This Time
TTITLE6=Living Legends Part II
TTITLE7=If I Can Find A Clean Shirt
TTITLE8=Til I Gain Control Again
TTITLE9=A Couple More Years
TTITLE10=Good Ol' Boys
TTITLE11=Luckenbach Texas
TTITLE12=Intro
TTITLE13=Flyin' W
TTITLE14=Suspicious Minds (ft Jessi Colter)
EXTD=
EXTT0=
EXTT1=
EXTT2=
EXTT3=
EXTT4=
EXTT5=
EXTT6=
EXTT7=
EXTT8=
EXTT9=
EXTT10=
EXTT11=
EXTT12=
EXTT13=
EXTT14=
PLAYORDER=
